<svg xmlns="http://www.w3.org/2000/svg" viewBox="0 0 128 128" width="128" height="128">
  <g fill="#2396ED">
    <path d="M71.3 52.7h13.1v11.4H71.3zM56 52.7h13.1v11.4H56zM40.7 52.7h13.1v11.4H40.7zM25.5 52.7h13.1v11.4H25.5zM56 38.8h13.1v11.4H56zM40.7 38.8h13.1v11.4H40.7zM71.3 38.8h13.1v11.4H71.3zM56 25h13.1v11.4H56zM86.6 52.7h13.1v11.4H86.6z"/>
    <path d="M121.7 59.5c-2.8-1.9-9.2-2.6-14.1-1.6-0.6-4.8-3.2-9-7.8-12.8l-2.7-1.8-1.8 2.7c-3.6 5.4-4.6 14.3-0.8 20.2-1.7 0.9-5 2.2-9.4 2.1H3.1l-0.3 1.6c-1.3 7.8-1.3 32.2 18.4 50.8C35 134 53 140 75.5 140c47.6 0 82.8-21.9 99.2-61.7 6.5 0.1 20.4 0 27.6-13.6l1.4-2.7-2.4-1.5z"/>
  </g>
</svg>